<mxfile host="app.diagrams.net" agent="Mozilla/5.0 (X11; Linux x86_64) AppleWebKit/537.36 (KHTML, like Gecko) Chrome/134.0.0.0 Safari/537.36" version="27.0.5">
  <diagram name="PÃ¡gina-1" id="Bz_EwOgIry4x3gXPgt4l">
    <mxGraphModel dx="2222" dy="974" grid="1" gridSize="10" guides="1" tooltips="1" connect="1" arrows="1" fold="1" page="1" pageScale="1" pageWidth="827" pageHeight="1169" math="0" shadow="0">
      <root>
        <mxCell id="0" />
        <mxCell id="1" parent="0" />
        <mxCell id="EGZBJ2fQeIES3XXhjUxB-7" value="VPC" style="points=[[0,0],[0.25,0],[0.5,0],[0.75,0],[1,0],[1,0.25],[1,0.5],[1,0.75],[1,1],[0.75,1],[0.5,1],[0.25,1],[0,1],[0,0.75],[0,0.5],[0,0.25]];outlineConnect=0;gradientColor=none;html=1;whiteSpace=wrap;fontSize=12;fontStyle=0;container=1;pointerEvents=0;collapsible=0;recursiveResize=0;shape=mxgraph.aws4.group;grIcon=mxgraph.aws4.group_vpc2;strokeColor=#8C4FFF;fillColor=none;verticalAlign=top;align=left;spacingLeft=30;fontColor=#AAB7B8;dashed=0;" vertex="1" parent="1">
          <mxGeometry x="139" y="410" width="550" height="370" as="geometry" />
        </mxCell>
        <mxCell id="EGZBJ2fQeIES3XXhjUxB-11" value="Mongo" style="sketch=0;points=[[0,0,0],[0.25,0,0],[0.5,0,0],[0.75,0,0],[1,0,0],[0,1,0],[0.25,1,0],[0.5,1,0],[0.75,1,0],[1,1,0],[0,0.25,0],[0,0.5,0],[0,0.75,0],[1,0.25,0],[1,0.5,0],[1,0.75,0]];outlineConnect=0;fontColor=#232F3E;fillColor=#C925D1;strokeColor=#ffffff;dashed=0;verticalLabelPosition=bottom;verticalAlign=top;align=center;html=1;fontSize=12;fontStyle=0;aspect=fixed;shape=mxgraph.aws4.resourceIcon;resIcon=mxgraph.aws4.database;" vertex="1" parent="EGZBJ2fQeIES3XXhjUxB-7">
          <mxGeometry x="20" y="262" width="78" height="78" as="geometry" />
        </mxCell>
        <mxCell id="EGZBJ2fQeIES3XXhjUxB-12" value="" style="sketch=0;outlineConnect=0;fontColor=#232F3E;gradientColor=none;fillColor=#C925D1;strokeColor=none;dashed=0;verticalLabelPosition=bottom;verticalAlign=top;align=center;html=1;fontSize=12;fontStyle=0;aspect=fixed;pointerEvents=1;shape=mxgraph.aws4.rds_postgresql_instance;" vertex="1" parent="EGZBJ2fQeIES3XXhjUxB-7">
          <mxGeometry x="20" y="117" width="78" height="78" as="geometry" />
        </mxCell>
        <mxCell id="EGZBJ2fQeIES3XXhjUxB-16" value="Lambda AI" style="sketch=0;points=[[0,0,0],[0.25,0,0],[0.5,0,0],[0.75,0,0],[1,0,0],[0,1,0],[0.25,1,0],[0.5,1,0],[0.75,1,0],[1,1,0],[0,0.25,0],[0,0.5,0],[0,0.75,0],[1,0.25,0],[1,0.5,0],[1,0.75,0]];outlineConnect=0;fontColor=#232F3E;fillColor=#8C4FFF;strokeColor=#ffffff;dashed=0;verticalLabelPosition=bottom;verticalAlign=top;align=center;html=1;fontSize=12;fontStyle=0;aspect=fixed;shape=mxgraph.aws4.resourceIcon;resIcon=mxgraph.aws4.serverless;" vertex="1" parent="EGZBJ2fQeIES3XXhjUxB-7">
          <mxGeometry x="170" y="30" width="78" height="78" as="geometry" />
        </mxCell>
        <mxCell id="EGZBJ2fQeIES3XXhjUxB-8" value="EC2 instance contents" style="points=[[0,0],[0.25,0],[0.5,0],[0.75,0],[1,0],[1,0.25],[1,0.5],[1,0.75],[1,1],[0.75,1],[0.5,1],[0.25,1],[0,1],[0,0.75],[0,0.5],[0,0.25]];outlineConnect=0;gradientColor=none;html=1;whiteSpace=wrap;fontSize=12;fontStyle=0;container=1;pointerEvents=0;collapsible=0;recursiveResize=0;shape=mxgraph.aws4.group;grIcon=mxgraph.aws4.group_ec2_instance_contents;strokeColor=#D86613;fillColor=none;verticalAlign=top;align=left;spacingLeft=30;fontColor=#D86613;dashed=0;" vertex="1" parent="EGZBJ2fQeIES3XXhjUxB-7">
          <mxGeometry x="162" y="150" width="358" height="190" as="geometry" />
        </mxCell>
        <mxCell id="EGZBJ2fQeIES3XXhjUxB-10" value="API" style="sketch=0;points=[[0,0,0],[0.25,0,0],[0.5,0,0],[0.75,0,0],[1,0,0],[0,1,0],[0.25,1,0],[0.5,1,0],[0.75,1,0],[1,1,0],[0,0.25,0],[0,0.5,0],[0,0.75,0],[1,0.25,0],[1,0.5,0],[1,0.75,0]];outlineConnect=0;fontColor=#232F3E;fillColor=#ED7100;strokeColor=#ffffff;dashed=0;verticalLabelPosition=bottom;verticalAlign=top;align=center;html=1;fontSize=12;fontStyle=0;aspect=fixed;shape=mxgraph.aws4.resourceIcon;resIcon=mxgraph.aws4.ec2;" vertex="1" parent="EGZBJ2fQeIES3XXhjUxB-8">
          <mxGeometry x="103" y="60" width="78" height="78" as="geometry" />
        </mxCell>
        <mxCell id="EGZBJ2fQeIES3XXhjUxB-19" value="Front" style="sketch=0;points=[[0,0,0],[0.25,0,0],[0.5,0,0],[0.75,0,0],[1,0,0],[0,1,0],[0.25,1,0],[0.5,1,0],[0.75,1,0],[1,1,0],[0,0.25,0],[0,0.5,0],[0,0.75,0],[1,0.25,0],[1,0.5,0],[1,0.75,0]];outlineConnect=0;fontColor=#232F3E;fillColor=#8C4FFF;strokeColor=#ffffff;dashed=0;verticalLabelPosition=bottom;verticalAlign=top;align=center;html=1;fontSize=12;fontStyle=0;aspect=fixed;shape=mxgraph.aws4.resourceIcon;resIcon=mxgraph.aws4.cloudfront;" vertex="1" parent="EGZBJ2fQeIES3XXhjUxB-8">
          <mxGeometry x="228" y="60" width="78" height="78" as="geometry" />
        </mxCell>
        <mxCell id="EGZBJ2fQeIES3XXhjUxB-20" value="" style="edgeStyle=orthogonalEdgeStyle;html=1;endArrow=block;elbow=vertical;startArrow=block;startFill=1;endFill=1;strokeColor=#545B64;rounded=0;" edge="1" parent="EGZBJ2fQeIES3XXhjUxB-8" source="EGZBJ2fQeIES3XXhjUxB-10" target="EGZBJ2fQeIES3XXhjUxB-19">
          <mxGeometry width="100" relative="1" as="geometry">
            <mxPoint x="108" y="-40" as="sourcePoint" />
            <mxPoint x="208" y="-40" as="targetPoint" />
          </mxGeometry>
        </mxCell>
        <mxCell id="EGZBJ2fQeIES3XXhjUxB-22" value="" style="edgeStyle=orthogonalEdgeStyle;html=1;endArrow=block;elbow=vertical;startArrow=block;startFill=1;endFill=1;strokeColor=#545B64;rounded=0;" edge="1" parent="EGZBJ2fQeIES3XXhjUxB-7" source="EGZBJ2fQeIES3XXhjUxB-12" target="EGZBJ2fQeIES3XXhjUxB-10">
          <mxGeometry width="100" relative="1" as="geometry">
            <mxPoint x="353" y="229" as="sourcePoint" />
            <mxPoint x="300" y="230" as="targetPoint" />
            <Array as="points">
              <mxPoint x="59" y="220" />
              <mxPoint x="182" y="220" />
              <mxPoint x="182" y="219" />
            </Array>
          </mxGeometry>
        </mxCell>
        <mxCell id="EGZBJ2fQeIES3XXhjUxB-23" value="" style="edgeStyle=orthogonalEdgeStyle;html=1;endArrow=block;elbow=vertical;startArrow=block;startFill=1;endFill=1;strokeColor=#545B64;rounded=0;" edge="1" parent="EGZBJ2fQeIES3XXhjUxB-7" source="EGZBJ2fQeIES3XXhjUxB-11" target="EGZBJ2fQeIES3XXhjUxB-10">
          <mxGeometry width="100" relative="1" as="geometry">
            <mxPoint x="-82" y="249" as="sourcePoint" />
            <mxPoint x="275" y="229" as="targetPoint" />
            <Array as="points">
              <mxPoint x="59" y="240" />
            </Array>
          </mxGeometry>
        </mxCell>
        <mxCell id="EGZBJ2fQeIES3XXhjUxB-24" value="" style="edgeStyle=orthogonalEdgeStyle;html=1;endArrow=block;elbow=vertical;startArrow=block;startFill=1;endFill=1;strokeColor=#545B64;rounded=0;" edge="1" parent="EGZBJ2fQeIES3XXhjUxB-7" source="EGZBJ2fQeIES3XXhjUxB-16" target="EGZBJ2fQeIES3XXhjUxB-10">
          <mxGeometry width="100" relative="1" as="geometry">
            <mxPoint x="69" y="205" as="sourcePoint" />
            <mxPoint x="275" y="229" as="targetPoint" />
            <Array as="points">
              <mxPoint x="310" y="69" />
            </Array>
          </mxGeometry>
        </mxCell>
        <mxCell id="EGZBJ2fQeIES3XXhjUxB-13" value="Client" style="sketch=0;points=[[0,0,0],[0.25,0,0],[0.5,0,0],[0.75,0,0],[1,0,0],[0,1,0],[0.25,1,0],[0.5,1,0],[0.75,1,0],[1,1,0],[0,0.25,0],[0,0.5,0],[0,0.75,0],[1,0.25,0],[1,0.5,0],[1,0.75,0]];outlineConnect=0;fontColor=#232F3E;fillColor=#DD344C;strokeColor=#ffffff;dashed=0;verticalLabelPosition=bottom;verticalAlign=top;align=center;html=1;fontSize=12;fontStyle=0;aspect=fixed;shape=mxgraph.aws4.resourceIcon;resIcon=mxgraph.aws4.mobile;" vertex="1" parent="1">
          <mxGeometry x="529" y="270" width="78" height="78" as="geometry" />
        </mxCell>
        <mxCell id="EGZBJ2fQeIES3XXhjUxB-15" value="Alerts" style="sketch=0;points=[[0,0,0],[0.25,0,0],[0.5,0,0],[0.75,0,0],[1,0,0],[0,1,0],[0.25,1,0],[0.5,1,0],[0.75,1,0],[1,1,0],[0,0.25,0],[0,0.5,0],[0,0.75,0],[1,0.25,0],[1,0.5,0],[1,0.75,0]];points=[[0,0,0],[0.25,0,0],[0.5,0,0],[0.75,0,0],[1,0,0],[0,1,0],[0.25,1,0],[0.5,1,0],[0.75,1,0],[1,1,0],[0,0.25,0],[0,0.5,0],[0,0.75,0],[1,0.25,0],[1,0.5,0],[1,0.75,0]];outlineConnect=0;fontColor=#232F3E;fillColor=#E7157B;strokeColor=#ffffff;dashed=0;verticalLabelPosition=bottom;verticalAlign=top;align=center;html=1;fontSize=12;fontStyle=0;aspect=fixed;shape=mxgraph.aws4.resourceIcon;resIcon=mxgraph.aws4.user_notifications;" vertex="1" parent="1">
          <mxGeometry x="309" y="810" width="78" height="78" as="geometry" />
        </mxCell>
        <mxCell id="EGZBJ2fQeIES3XXhjUxB-21" value="" style="edgeStyle=orthogonalEdgeStyle;html=1;endArrow=block;elbow=vertical;startArrow=block;startFill=1;endFill=1;strokeColor=#545B64;rounded=0;" edge="1" parent="1" source="EGZBJ2fQeIES3XXhjUxB-13" target="EGZBJ2fQeIES3XXhjUxB-19">
          <mxGeometry width="100" relative="1" as="geometry">
            <mxPoint x="692" y="619" as="sourcePoint" />
            <mxPoint x="739" y="619" as="targetPoint" />
          </mxGeometry>
        </mxCell>
        <mxCell id="EGZBJ2fQeIES3XXhjUxB-25" value="" style="edgeStyle=orthogonalEdgeStyle;html=1;endArrow=block;elbow=vertical;startArrow=block;startFill=1;endFill=1;strokeColor=#545B64;rounded=0;" edge="1" parent="1" source="EGZBJ2fQeIES3XXhjUxB-10" target="EGZBJ2fQeIES3XXhjUxB-15">
          <mxGeometry width="100" relative="1" as="geometry">
            <mxPoint x="597" y="469" as="sourcePoint" />
            <mxPoint x="659" y="610" as="targetPoint" />
            <Array as="points" />
          </mxGeometry>
        </mxCell>
      </root>
    </mxGraphModel>
  </diagram>
</mxfile>
